<svg xmlns="http://www.w3.org/2000/svg" width="21.148" height="26.044" viewBox="0 0 21.148 26.044">
  <g id="streamline-icon-upload-button-black" transform="translate(24.948 26.044) rotate(180)">
    <path id="Path_12919" data-name="Path 12919" d="M21.261,18.731a.831.831,0,0,0,1.175-1.175l-4.9-4.9a.827.827,0,0,0-.587-.261.709.709,0,0,0-.587.261l-4.9,4.9a.827.827,0,0,0,0,1.175.972.972,0,0,0,.587.261.8.8,0,0,0,.587-.261l3.525-3.525v14.36a.794.794,0,0,0,.783.783.907.907,0,0,0,.849-.783V15.207Z" transform="translate(-2.579 -4.306)"/>
    <path id="Path_12920" data-name="Path 12920" d="M20.9,0H7.847A4.081,4.081,0,0,0,3.8,4.112V17.95A4.067,4.067,0,0,0,7.847,22h2.48a.794.794,0,0,0,.783-.783.842.842,0,0,0-.783-.783H7.847a2.479,2.479,0,0,1-2.48-2.48V4.112a2.479,2.479,0,0,1,2.48-2.48H20.9a2.479,2.479,0,0,1,2.48,2.48V17.95a2.479,2.479,0,0,1-2.48,2.48h-2.48a.794.794,0,0,0-.783.783.842.842,0,0,0,.783.783H20.9a4.067,4.067,0,0,0,4.047-4.047V4.112A4.081,4.081,0,0,0,20.9,0Z" transform="translate(0)"/>
  </g>
</svg>
