<svg xmlns="http://www.w3.org/2000/svg" width="32" height="32" viewBox="0 0 32 32">
  <g id="edit_pencil" transform="translate(-277 -4)">
    <g id="Icon" transform="translate(277 4)">
      <path id="Rectangle" d="M16,0A16,16,0,1,1,0,16,16,16,0,0,1,16,0Z" fill="#050505"/>
    </g>
    <g id="pencil_edit_icon" transform="translate(284.671 10.466)">
      <path id="Path_26810" data-name="Path 26810" d="M11.555,4.375l3.78,3.78L5.767,17.723l-3.778-3.78ZM18.2,3.463,16.518,1.777a1.673,1.673,0,0,0-2.363,0L12.54,3.392l3.78,3.78L18.2,5.289A1.289,1.289,0,0,0,18.2,3.463ZM.011,19.256a.43.43,0,0,0,.52.512l4.212-1.021L.966,14.966Z" transform="translate(0)" fill="#fff"/>
    </g>
  </g>
</svg>
