<svg xmlns="http://www.w3.org/2000/svg" width="29.367" height="23.847" viewBox="0 0 29.367 23.847">
  <g id="icon_goto" transform="translate(0 23.847) rotate(-90)">
    <path id="Path_12919" data-name="Path 12919" d="M11.316,13.1a.937.937,0,0,1,1.325,1.325l-5.52,5.52a.933.933,0,0,1-.662.294.8.8,0,0,1-.662-.294l-5.52-5.52a.933.933,0,0,1,0-1.325,1.1,1.1,0,0,1,.662-.294A.9.9,0,0,1,1.6,13.1l3.974,3.975V.883A.9.9,0,0,1,6.459,0a1.023,1.023,0,0,1,.957.883V17.076Z" transform="translate(5.465 0)"/>
    <path id="Path_12920" data-name="Path 12920" d="M19.284,24.8H4.563A4.6,4.6,0,0,1,0,20.167V4.563A4.586,4.586,0,0,1,4.563,0h2.8a.9.9,0,0,1,.883.883.95.95,0,0,1-.883.883h-2.8a2.8,2.8,0,0,0-2.8,2.8v15.6a2.8,2.8,0,0,0,2.8,2.8h14.72a2.8,2.8,0,0,0,2.8-2.8V4.563a2.8,2.8,0,0,0-2.8-2.8h-2.8A.9.9,0,0,1,15.6.883.95.95,0,0,1,16.487,0h2.8a4.586,4.586,0,0,1,4.563,4.563v15.6A4.6,4.6,0,0,1,19.284,24.8Z" transform="translate(0 4.563)"/>
  </g>
</svg>
