<?xml version="1.0" standalone="no"?>
<!DOCTYPE svg PUBLIC "-//W3C//DTD SVG 20010904//EN"
 "http://www.w3.org/TR/2001/REC-SVG-20010904/DTD/svg10.dtd">
<svg version="1.0" xmlns="http://www.w3.org/2000/svg"
 width="32.000000pt" height="32.000000pt" viewBox="0 0 32.000000 32.000000"
 preserveAspectRatio="xMidYMid meet">

<g transform="translate(0.000000,32.000000) scale(0.100000,-0.100000)"
fill="#000000" stroke="none">
<path d="M142 226 c-29 -8 -56 -17 -60 -21 -4 -5 1 -5 11 -2 10 4 62 7 115 7
88 1 95 2 78 15 -24 18 -72 18 -144 1z"/>
<path d="M125 190 c-22 -5 -58 -15 -80 -23 l-40 -14 111 -12 c61 -7 127 -16
147 -21 43 -9 60 5 55 47 -3 28 -4 28 -78 30 -41 0 -93 -3 -115 -7z"/>
<path d="M136 110 c14 -14 144 -26 144 -13 0 6 -24 13 -52 17 -78 9 -104 8
-92 -4z"/>
</g>
</svg>
